<?xml version="1.0" standalone="no"?><!DOCTYPE svg PUBLIC "-//W3C//DTD SVG 1.1//EN" "http://www.w3.org/Graphics/SVG/1.1/DTD/svg11.dtd"><svg t="1524822864120" class="icon" style="" viewBox="0 0 1024 1024" version="1.1" xmlns="http://www.w3.org/2000/svg" p-id="2290" xmlns:xlink="http://www.w3.org/1999/xlink" width="128" height="128"><defs><style type="text/css"></style></defs><path d="M508.130982 149.602015c-201.188917 0-361.108312 162.498741-361.108312 361.108312 0 201.188917 162.498741 361.108312 361.108312 361.108313 95.435768 0 159.919395-33.531486 188.292192-51.586902 69.642317-43.848866 108.332494-103.173804 98.015113-162.498741-7.738035-51.586902-56.745592-90.277078-116.070529-108.332493-5.15869 0-12.896725-5.15869-18.055415-5.15869 30.952141-18.055416 46.428212-38.690176 51.586901-69.642318 7.738035-64.483627-64.483627-128.967254-162.49874-141.86398-90.277078-12.896725-162.498741-5.15869-188.292192-5.15869v116.070529c51.586902-7.738035 121.229219-7.738035 175.395466 0 46.428212 7.738035 77.380353 25.793451 82.539043 46.428212 0 5.15869 0 12.896725-5.15869 18.055415-12.896725 18.055416-33.531486 18.055416-51.586902 12.896726-59.324937-7.738035-128.967254-7.738035-198.609572 0v116.070529c64.483627-7.738035 172.816121-7.738035 224.403023 0 46.428212 7.738035 77.380353 30.952141 82.539043 56.745592 0 12.896725-5.15869 20.634761-12.896726 33.531486-18.055416 20.634761-69.642317 43.848866-141.863979 43.848866-147.02267 0-265.672544-121.229219-265.672544-265.672544 0-147.02267 121.229219-265.672544 265.672544-265.672544s265.672544 121.229219 265.672544 265.672544v30.952141c18.055416 7.738035 46.428212 30.952141 82.539043 69.642318 7.738035-30.952141 12.896725-64.483627 12.896725-98.015114-5.15869-198.609572-167.657431-358.528967-368.846348-358.528967z" fill="#E50012" p-id="2291"></path></svg>