<?xml version="1.0" standalone="no"?><!DOCTYPE svg PUBLIC "-//W3C//DTD SVG 1.1//EN" "http://www.w3.org/Graphics/SVG/1.1/DTD/svg11.dtd"><svg t="1524822815144" class="icon" style="" viewBox="0 0 1024 1024" version="1.1" xmlns="http://www.w3.org/2000/svg" p-id="1333" xmlns:xlink="http://www.w3.org/1999/xlink" width="128" height="128"><defs><style type="text/css"></style></defs><path d="M472.020151 263.093199l-69.642317-69.642317c-56.745592 56.745592-56.745592 147.02267 0 206.347607l69.642317-69.642318c10.31738-20.634761 10.31738-46.428212 0-67.062972zM482.337531 335.314861l-69.642317 69.642318c56.745592 56.745592 147.02267 56.745592 206.347607 0l-69.642317-69.642318c-28.372796-5.15869-46.428212-5.15869-67.062973 0zM551.979849 330.156171l69.642317 69.642318c56.745592-56.745592 56.745592-147.02267 0-206.347607l-69.642317 69.642317c-5.15869 20.634761-5.15869 46.428212 0 67.062972zM410.115869 188.292191l69.642317 69.642318c20.634761 5.15869 41.269521 5.15869 61.904283 0l69.642317-69.642318c-54.166247-56.745592-144.443325-56.745592-201.188917 0z" fill="#9E0B0F" p-id="1334"></path><path d="M688.685139 477.178841l-69.642318-67.062972c-56.745592 56.745592-56.745592 147.02267 0 206.347607l69.642318-69.642317c5.15869-25.793451 5.15869-46.428212 0-69.642318zM693.843829 551.979849l-69.642318 69.642317c56.745592 56.745592 147.02267 56.745592 206.347607 0l-69.642317-69.642317c-20.634761-10.31738-46.428212-10.31738-67.062972 0zM766.065491 546.821159l69.642318 69.642317c56.745592-56.745592 56.745592-147.02267 0-206.347607l-69.642318 69.642317c-5.15869 20.634761-5.15869 41.269521 0 67.062973zM624.201511 399.798489l69.642318 69.642317c20.634761 5.15869 41.269521 5.15869 61.904282 0l69.642317-69.642317c-56.745592-49.007557-141.86398-49.007557-201.188917 0z" fill="#9E0B0F" p-id="1335"></path><path d="M257.934509 477.178841l-69.642318-67.062972c-56.745592 56.745592-56.745592 147.02267 0 206.347607l69.642318-69.642317c5.15869-25.793451 5.15869-46.428212 0-69.642318zM263.093199 551.979849l-69.642317 69.642317c56.745592 56.745592 147.02267 56.745592 206.347607 0l-69.642318-69.642317c-20.634761-10.31738-46.428212-10.31738-67.062972 0zM340.473552 546.821159l69.642317 69.642317c56.745592-56.745592 56.745592-147.02267 0-206.347607l-69.642317 69.642317c-10.31738 20.634761-10.31738 41.269521 0 67.062973zM193.450882 399.798489l69.642317 69.642317c20.634761 5.15869 41.269521 5.15869 61.904282 0l69.642317-69.642317c-49.007557-49.007557-141.86398-49.007557-201.188916 0z" fill="#9E0B0F" p-id="1336"></path><path d="M472.020151 693.843829l-69.642317-69.642318c-56.745592 56.745592-56.745592 147.02267 0 206.347607l69.642317-69.642317c10.31738-20.634761 10.31738-46.428212 0-67.062972zM482.337531 763.486146l-69.642317 69.642317c56.745592 56.745592 147.02267 56.745592 206.347607 0l-69.642317-69.642317c-28.372796-5.15869-46.428212-5.15869-67.062973 0zM551.979849 758.327456l69.642317 69.642317c56.745592-56.745592 56.745592-147.02267 0-206.347607l-69.642317 69.642318c-5.15869 23.214106-5.15869 43.848866 0 67.062972zM410.115869 619.042821l69.642317 69.642318c20.634761 5.15869 41.269521 5.15869 61.904283 0l69.642317-69.642318c-54.166247-56.745592-144.443325-56.745592-201.188917 0z" fill="#9E0B0F" p-id="1337"></path></svg>