<?xml version="1.0" standalone="no"?><!DOCTYPE svg PUBLIC "-//W3C//DTD SVG 1.1//EN" "http://www.w3.org/Graphics/SVG/1.1/DTD/svg11.dtd"><svg t="1524822798013" class="icon" style="" viewBox="0 0 1024 1024" version="1.1" xmlns="http://www.w3.org/2000/svg" p-id="1093" xmlns:xlink="http://www.w3.org/1999/xlink" width="128" height="128"><defs><style type="text/css"></style></defs><path d="M510.710327 147.02267c-201.188917 0-363.687657 159.919395-363.687657 363.687657s165.078086 363.687657 363.687657 363.687658 366.267003-159.919395 366.267003-363.687658-162.498741-363.687657-366.267003-363.687657z m185.712847 306.942066c7.738035 5.15869 0 18.055416 2.579345 25.79345 0 5.15869-2.579345 12.896725-7.738035 15.476071-5.15869 2.579345-12.896725 2.579345-18.055416 2.579345-5.15869 7.738035-25.793451 7.738035-20.634761 23.214106 0 5.15869 7.738035 15.476071 15.476071 18.055415 7.738035 2.579345 20.634761 0 25.793451 2.579346 2.579345 18.055416 2.579345 38.690176-5.15869 54.166246-12.896725 5.15869-18.055416 20.634761-33.531487 18.055416-5.15869 2.579345-15.476071 7.738035-18.055415 15.476071 0 15.476071 15.476071 7.738035 23.214106 18.055415 7.738035 0 18.055416-5.15869 25.79345 0 15.476071 15.476071 2.579345 36.110831 2.579346 54.166247l-12.896726 15.476071c-7.738035 2.579345-20.634761 5.15869-33.531486 7.738035v2.579345h-15.476071c0-5.15869-7.738035-2.579345-12.896725-5.15869-7.738035 5.15869-18.055416-2.579345-25.793451-2.579345-43.848866 5.15869-74.801008-20.634761-118.649874-15.476071-15.476071-12.896725-38.690176-7.738035-59.324937-7.738035-20.634761 15.476071-43.848866 18.055416-69.642317 20.634761-12.896725 2.579345-18.055416-15.476071-25.793451-18.055416 0-12.896725-18.055416-20.634761-7.738036-36.110831 12.896725-12.896725 7.738035-30.952141 20.634761-43.848867 0-15.476071 2.579345-30.952141-7.738035-38.690176 2.579345-18.055416 2.579345-38.690176 7.738035-56.745592 5.15869-5.15869 12.896725-20.634761 23.214106-12.896726 12.896725 20.634761 51.586902-2.579345 54.166247 25.793451 0 23.214106-2.579345 49.007557-23.214106 59.324937-12.896725 18.055416-41.269521-5.15869-43.848866 20.634761-2.579345 12.896725 7.738035 18.055416 18.055415 23.214106 12.896725-5.15869 25.793451-5.15869 36.110831-18.055416 15.476071 0 20.634761-18.055416 36.110832-18.055415 12.896725 5.15869 23.214106 5.15869 33.531486 18.055415 5.15869 2.579345 7.738035 5.15869 15.47607 7.738036 15.476071 12.896725 36.110831-7.738035 51.586902 12.896725 7.738035 2.579345 18.055416 2.579345 25.793451 0 5.15869-2.579345 12.896725-12.896725 7.738035-18.055416 0-5.15869 0-7.738035-5.15869-12.896725-5.15869-2.579345-7.738035 0-15.47607 0-20.634761 2.579345-36.110831-7.738035-54.166247-12.896726-12.896725-7.738035-30.952141-18.055416-33.531486-36.110831-5.15869-5.15869-2.579345-15.476071-7.738036-20.63476 0-7.738035 5.15869-12.896725 12.896726-18.055416 15.476071-5.15869 25.793451 7.738035 41.269521 2.579345 7.738035-5.15869 20.634761-2.579345 25.793451-15.476071 5.15869-5.15869 2.579345-18.055416-2.579345-23.214105-2.579345-2.579345-7.738035-2.579345-12.896726 0-7.738035 7.738035-23.214106 7.738035-36.110831 5.15869-5.15869-2.579345-15.476071-5.15869-18.055415-12.896726 2.579345-12.896725 0-23.214106 12.896725-33.531486 0-7.738035-5.15869-15.476071-12.896725-18.055415-15.476071 5.15869-25.793451-30.952141-38.690177-5.158691 0 18.055416 5.15869 30.952141 2.579345 49.007557-15.476071 7.738035-33.531486 0-49.007556 0-15.476071-7.738035-36.110831-18.055416-43.848867-36.110831 2.579345-15.476071-5.15869-25.793451 0-41.269522-7.738035-18.055416 7.738035-30.952141 7.738035-43.848866 7.738035-7.738035 18.055416-18.055416 30.952142-12.896725 7.738035 5.15869 18.055416 5.15869 23.214105 18.055415 12.896725 2.579345 23.214106 12.896725 38.690177 7.738035 12.896725-2.579345 15.476071-18.055416 25.793451-18.055415 18.055416 0 43.848866 7.738035 56.745591-12.896726 5.15869-2.579345 15.476071-5.15869 18.055416-12.896725h33.531486c2.579345 7.738035 12.896725 15.476071 18.055416 18.055416 33.531486 5.15869 69.642317 12.896725 103.173803 7.738035 5.15869 2.579345 12.896725 2.579345 15.476071 7.738035 0 20.634761-2.579345 43.848866-25.793451 56.745592-15.476071 5.15869-43.848866-7.738035-43.848866 15.476071 15.476071 30.952141 49.007557 18.055416 67.062972 28.372796z" p-id="1094"></path></svg>