<?xml version="1.0" standalone="no"?><!DOCTYPE svg PUBLIC "-//W3C//DTD SVG 1.1//EN" "http://www.w3.org/Graphics/SVG/1.1/DTD/svg11.dtd"><svg t="1524822851954" class="icon" style="" viewBox="0 0 1024 1024" version="1.1" xmlns="http://www.w3.org/2000/svg" p-id="2053" xmlns:xlink="http://www.w3.org/1999/xlink" width="128" height="128"><defs><style type="text/css"></style></defs><path d="M510.710327 216.664987c162.498741 0 294.04534 131.546599 294.045341 294.04534 0 162.498741-131.546599 294.04534-294.045341 294.045341-162.498741 0-294.04534-131.546599-294.04534-294.045341 0-162.498741 131.546599-294.04534 294.04534-294.04534z m0-69.642317c-203.768262 0-366.267003 162.498741-366.267002 366.267003s162.498741 366.267003 366.267002 366.267002 366.267003-162.498741 366.267003-366.267002-162.498741-366.267003-366.267003-366.267003z m-162.49874 188.292191v74.801008h36.110831v-74.801008h-36.110831z m149.602015 355.949623h36.110831v-128.967255h18.055416v49.007557h25.793451v-49.007557h18.055415v69.642318h-43.848866v56.745592h74.801007v-216.664988h56.745592V441.06801h-56.745592v-110.911839h-30.952141v51.586902h-67.062972v38.690176h74.801008v110.911839h-165.078086v-110.911839h74.801008V389.481108h-69.642318v-51.586901h-25.793451v110.911838h-56.745592v30.952141h56.745592v216.664988h74.801008v-56.745592h-43.848867V570.035264h5.158691v49.007557h25.79345V570.035264h18.055416v121.22922z m-149.602015-198.609572v198.609572h36.110831V492.654912h-36.110831z m296.624685-157.340051v74.801008h38.690176v-74.801008h-38.690176z m0 157.340051v198.609572h38.690176V492.654912h-38.690176z m-185.712846-157.340051v36.110832h49.007556v-36.110832h-49.007556z m67.062972 0v36.110832h38.690176v-36.110832h-38.690176z m-74.801008 113.491184v74.801008h30.952141v-74.801008h-30.952141z m46.428212 0v74.801008h30.952141v-74.801008h-30.952141z m49.007557 0v74.801008h30.952141v-74.801008h-30.952141z" fill="#E60012" p-id="2054"></path></svg>