<?xml version="1.0" standalone="no"?><!DOCTYPE svg PUBLIC "-//W3C//DTD SVG 1.1//EN" "http://www.w3.org/Graphics/SVG/1.1/DTD/svg11.dtd"><svg t="1524822768376" class="icon" style="" viewBox="0 0 1024 1024" version="1.1" xmlns="http://www.w3.org/2000/svg" p-id="856" xmlns:xlink="http://www.w3.org/1999/xlink" width="128" height="128"><defs><style type="text/css"></style></defs><path d="M510.710327 876.97733c-201.188917 0-366.267003-165.078086-366.267002-366.267003 0-201.188917 165.078086-366.267003 366.267002-366.267002 201.188917 0 366.267003 165.078086 366.267003 366.267002 0 201.188917-165.078086 366.267003-366.267003 366.267003z m-67.062972-652.574307c-128.967254 30.952141-224.403023 147.02267-224.403023 288.88665 0 95.435768 46.428212 183.133501 123.808565 237.299748-30.952141-49.007557-41.269521-154.760705-41.269522-154.760706-5.15869-172.816121 113.491184-224.403023 113.491184-224.403022 64.483627-36.110831 100.594458 5.15869 100.594459 5.15869l28.372796 28.372796c23.214106 28.372796 54.166247 12.896725 54.166246 12.896725 64.483627-30.952141 28.372796-105.753149 28.372796-105.753148-36.110831-87.697733-123.808564-92.856423-183.133501-87.697733z m118.649874 575.193954c136.70529-23.214106 242.458438-141.86398 242.458439-288.88665 0-90.277078-46.428212-177.974811-113.491184-232.141057 64.483627 131.546599 28.372796 247.617128 28.372796 247.617128-36.110831 123.808564-128.967254 136.70529-128.967255 136.70529-64.483627 18.055416-87.697733-30.952141-87.697733-30.952141-18.055416-23.214106-41.269521-23.214106-41.269521-23.214106-54.166247-5.15869-64.483627 46.428212-64.483627 46.428211 0 5.15869-5.15869 12.896725-5.158691 18.055416 5.15869 54.166247 36.110831 87.697733 36.110832 87.697733 41.269521 38.690176 105.753149 43.848866 134.125944 38.690176z m-128.967254-288.88665l82.539043 82.539043 82.539042-82.539043-82.539042-87.697733-82.539043 87.697733z" fill="#A40000" p-id="857"></path></svg>