<?xml version="1.0" standalone="no"?><!DOCTYPE svg PUBLIC "-//W3C//DTD SVG 1.1//EN" "http://www.w3.org/Graphics/SVG/1.1/DTD/svg11.dtd"><svg t="1524900246321" class="icon" style="" viewBox="0 0 1024 1024" version="1.1" xmlns="http://www.w3.org/2000/svg" p-id="1516" xmlns:xlink="http://www.w3.org/1999/xlink" width="128" height="128"><defs><style type="text/css"></style></defs><path d="M580.362807 1024H358.976923C180.281737 1024 36.056405 865.352135 36.056405 669.494134v-26.537461C36.056405 447.098673 180.281737 288.450808 358.976923 288.450808h132.975756a306.623055 306.623055 0 0 1 219.36673 94.900268 28.845066 28.845066 0 1 1-40.671544 40.383093A249.221373 249.221373 0 0 0 491.952679 346.140941h-132.975756C212.732437 346.140941 93.746538 479.260922 93.746538 642.956673v26.537461C93.746538 833.189886 212.732437 966.309867 358.976923 966.309867h221.385884C677.859132 966.309867 757.183064 877.178612 757.183064 767.423135V612.813579a28.845066 28.845066 0 0 1 57.690133 0v154.609556C814.873197 908.619735 709.73293 1024 580.362807 1024zM915.830929 284.268273a28.845066 28.845066 0 0 1-21.489574-10.239998 28.845066 28.845066 0 0 1 2.307605-40.671544A100.957732 100.957732 0 0 0 829.29573 57.690277a99.659704 99.659704 0 0 0-89.563931 56.103654 28.845066 28.845066 0 1 1-51.632669-25.672109A156.917161 156.917161 0 0 1 829.29573 0.000144a158.647865 158.647865 0 0 1 105.717168 276.912637 28.845066 28.845066 0 0 1-19.181969 7.355492z" fill="" p-id="1517"></path><path d="M786.02813 605.746538a28.845066 28.845066 0 0 1-28.845066-28.845067 488.202748 488.202748 0 0 1 137.879417-340.948684 28.845066 28.845066 0 1 1 41.536896 40.094642A430.656841 430.656841 0 0 0 814.873197 576.901471a28.845066 28.845066 0 0 1-28.845067 28.845067zM678.724484 418.253606a28.845066 28.845066 0 0 1-28.845067-23.508729A489.500776 489.500776 0 0 1 641.802799 302.873341a562.478794 562.478794 0 0 1 45.71943-213.597716 28.845066 28.845066 0 0 1 52.786471 23.364503A506.807816 506.807816 0 0 0 699.492931 302.873341a437.435431 437.435431 0 0 0 7.643943 81.198862 28.845066 28.845066 0 0 1-23.076053 34.181403 22.354926 22.354926 0 0 1-5.336337 0z" fill="" p-id="1518"></path></svg>