<?xml version="1.0" standalone="no"?><!DOCTYPE svg PUBLIC "-//W3C//DTD SVG 1.1//EN" "http://www.w3.org/Graphics/SVG/1.1/DTD/svg11.dtd"><svg t="1524900213876" class="icon" style="" viewBox="0 0 1024 1024" version="1.1" xmlns="http://www.w3.org/2000/svg" p-id="1248" xmlns:xlink="http://www.w3.org/1999/xlink" width="128" height="128"><defs><style type="text/css"></style></defs><path d="M512.214525 586.368715a171.620112 171.620112 0 1 1 171.620112-171.620112 171.620112 171.620112 0 0 1-171.620112 171.620112z m0-286.033519a114.413408 114.413408 0 1 0 114.413408 114.413407 114.413408 114.413408 0 0 0-114.413408-114.413407z" fill="" p-id="1249"></path><path d="M512.214525 1024a28.603352 28.603352 0 0 1-20.451397-8.581006L208.589944 732.388827a429.050279 429.050279 0 1 1 606.820112 0L532.236872 1015.418994a28.603352 28.603352 0 0 1-20.022347 8.581006zM512.214525 57.206704a371.843575 371.843575 0 0 0-263.150838 634.70838L512.214525 954.922905l262.721788-263.007821A371.843575 371.843575 0 0 0 512.214525 57.206704z" fill="" p-id="1250"></path></svg>