<?xml version="1.0" standalone="no"?><!DOCTYPE svg PUBLIC "-//W3C//DTD SVG 1.1//EN" "http://www.w3.org/Graphics/SVG/1.1/DTD/svg11.dtd"><svg t="1525419143562" class="icon" style="" viewBox="0 0 1024 1024" version="1.1" xmlns="http://www.w3.org/2000/svg" p-id="1162" xmlns:xlink="http://www.w3.org/1999/xlink" width="128" height="128"><defs><style type="text/css"></style></defs><path d="M985.6 198.4H627.2c-19.2 0-38.4-19.2-38.4-38.4s19.2-38.4 38.4-38.4h352c19.2 0 38.4 19.2 38.4 38.4 6.4 19.2-12.8 38.4-32 38.4zM985.6 396.8H627.2c-19.2 0-38.4-19.2-38.4-38.4s19.2-38.4 38.4-38.4h352c19.2 0 38.4 19.2 38.4 38.4 6.4 19.2-12.8 38.4-32 38.4zM985.6 710.4H627.2c-19.2 0-38.4-19.2-38.4-38.4s19.2-38.4 38.4-38.4h352c19.2 0 38.4 19.2 38.4 38.4 6.4 19.2-12.8 38.4-32 38.4zM985.6 902.4H627.2c-19.2 0-38.4-19.2-38.4-38.4s19.2-38.4 38.4-38.4h352c19.2 0 38.4 19.2 38.4 38.4 6.4 25.6-12.8 38.4-32 38.4z" p-id="1163"></path><path d="M352 64c32 0 57.6 25.6 57.6 57.6v236.8c0 25.6-25.6 51.2-57.6 51.2H121.6c-32 0-57.6-25.6-57.6-57.6V121.6c0-32 25.6-57.6 57.6-57.6h230.4m0-64H121.6C51.2 0 0 57.6 0 121.6v236.8c0 64 51.2 115.2 115.2 115.2h236.8c64 0 115.2-51.2 115.2-115.2V121.6C473.6 57.6 422.4 0 352 0zM352 614.4c32 0 51.2 25.6 51.2 51.2v236.8c6.4 32-19.2 57.6-51.2 57.6H121.6c-32 0-57.6-25.6-57.6-57.6v-236.8c0-25.6 25.6-51.2 57.6-51.2h230.4m0-64H121.6c-64 0-115.2 51.2-115.2 115.2v236.8c0 64 51.2 115.2 115.2 115.2h236.8c64 0 115.2-51.2 115.2-115.2v-236.8c0-64-51.2-115.2-121.6-115.2z" p-id="1164"></path></svg>