<?xml version="1.0" standalone="no"?><!DOCTYPE svg PUBLIC "-//W3C//DTD SVG 1.1//EN" "http://www.w3.org/Graphics/SVG/1.1/DTD/svg11.dtd"><svg t="1525324880840" class="icon" style="" viewBox="0 0 1024 1024" version="1.1" xmlns="http://www.w3.org/2000/svg" p-id="1136" xmlns:xlink="http://www.w3.org/1999/xlink" width="128" height="128"><defs><style type="text/css"></style></defs><path d="M512 512m-96 0a96 96 0 1 0 192 0 96 96 0 1 0-192 0Z" p-id="1137"></path><path d="M992 480h-129.6C846.208 300.608 695.616 160 512 160S177.792 300.608 161.6 480H32a32 32 0 0 0 0 64h129.6c16.192 179.392 166.784 320 350.4 320s334.208-140.608 350.4-320H992a32 32 0 1 0 0-64zM512 800c-158.816 0-288-129.184-288-288s129.184-288 288-288 288 129.184 288 288-129.184 288-288 288z" p-id="1138"></path></svg>