<?xml version="1.0" standalone="no"?><!DOCTYPE svg PUBLIC "-//W3C//DTD SVG 1.1//EN" "http://www.w3.org/Graphics/SVG/1.1/DTD/svg11.dtd"><svg t="1525325184334" class="icon" style="" viewBox="0 0 1024 1024" version="1.1" xmlns="http://www.w3.org/2000/svg" p-id="1042" xmlns:xlink="http://www.w3.org/1999/xlink" width="128" height="128"><defs><style type="text/css"></style></defs><path d="M1019.40514967 519.23284423l-506.19967563-465.22046253-508.61062371 462.81227612c-9.64241147 9.64241147-9.64241147 24.10533825 0 33.74913056s24.10533825 9.64241147 33.74913056 0l474.86287399-433.88642257 474.86287401 433.88642257c4.82189616 4.82189616 9.64241147 7.23284423 16.872494 7.23284424s12.04921702-2.40956723 16.87249402-7.23284424c7.23284423-7.23284423 7.23284423-21.69577102-2.40956724-31.33818248zM865.13485124 528.87249403c-14.46292679 0-24.10533825 9.64241147-24.10533824 24.10533824v368.80049038h-197.65769794v-257.91897229h-262.74224928v257.91897229h-197.65769794v-368.80049038c0-14.46292679-12.04921702-24.10533825-24.10533824-24.10533824-14.46292679 0-24.10533825 9.64241147-24.10533825 24.10533824v417.00978603h296.48723731v-257.91897228h163.91132907v257.91897228h296.48723733v-417.00978603c-2.40956723-14.46292679-12.04921702-24.10533825-26.5149055-24.10533824zM691.57972989 184.17596103h147.0374542v127.75401212c0 14.46292679 12.04921702 24.10533825 24.10533824 24.10533825 14.46292679 0 24.10533825-9.64241147 24.10533825-24.10533825v-175.96468861h-197.65769795c-14.46292679 0-24.10533825 9.64241147-24.10533824 24.10533825 2.40956723 12.04921702 14.46292679 24.10533825 26.5149055 24.10533824z" fill="" p-id="1043"></path></svg>