<?xml version="1.0" standalone="no"?><!DOCTYPE svg PUBLIC "-//W3C//DTD SVG 1.1//EN" "http://www.w3.org/Graphics/SVG/1.1/DTD/svg11.dtd"><svg t="1525396128117" class="icon" style="" viewBox="0 0 1024 1024" version="1.1" xmlns="http://www.w3.org/2000/svg" p-id="1132" xmlns:xlink="http://www.w3.org/1999/xlink" width="128" height="128"><defs><style type="text/css"></style></defs><path d="M955.321073 128.269996c-6.719895-6.079905-15.679755-8.95986-24.735613-8.063874-2.399963 0.287996-249.340104 23.967626-390.553898-111.294261a32.0315 32.0315 0 0 0-44.447306 0.159997c-139.037828 135.03789-387.86594 111.35826-390.3939 111.102264a31.967501 31.967501 0 0 0-35.263449 31.807503v239.99625c0 519.223887 436.089186 630.038156 440.505117 631.094139a31.167513 31.167513 0 0 0 14.975767 0.032c4.415931-1.055984 440.505117-111.902252 440.505117-631.094139v-239.99625a31.935501 31.935501 0 0 0-10.591835-23.743629z m-53.407165 263.739879c0 437.241168-328.218872 550.743395-383.994 566.839143-55.935126-16.159748-383.994-129.725973-383.994001-566.839143V185.869096c75.774816 2.207966 256.187997-5.343917 384.121999-111.070265 129.117983 105.59835 308.539179 113.054234 383.866002 111.070265v206.140779z" p-id="1133"></path><path d="M673.91747 377.994094c0-91.51857-74.462837-165.981407-166.013406-165.981407s-166.013406 74.462837-166.013406 165.981407c0 83.998688 62.943017 152.893611 143.99775 163.773441V736.0045a31.9995 31.9995 0 0 0 63.999 0v-63.999h63.999a31.9995 31.9995 0 0 0 0-63.999h-63.999v-70.046906c71.166888-18.751707 124.030062-83.038703 124.030062-159.9655z m-267.995813 0c0-56.255121 45.759285-102.014406 102.014406-102.014406s102.014406 45.759285 102.014407 102.014406S564.159185 480.0085 507.904064 480.0085s-101.982407-45.759285-101.982407-102.014406z" p-id="1134"></path></svg>