<?xml version="1.0" standalone="no"?><!DOCTYPE svg PUBLIC "-//W3C//DTD SVG 1.1//EN" "http://www.w3.org/Graphics/SVG/1.1/DTD/svg11.dtd"><svg t="1525330467130" class="icon" style="" viewBox="0 0 1144 1024" version="1.1" xmlns="http://www.w3.org/2000/svg" p-id="1102" xmlns:xlink="http://www.w3.org/1999/xlink" width="143" height="128"><defs><style type="text/css"></style></defs><path d="M634.19352 1021.053855c-214.136134 0-397.128939-132.204693-472.590302-319.327821l-87.406123 23.014257c-20.846123 5.503285-34.690145 1.424447-53.173631-9.839554-19.28438-11.755978-24.467307-41.188827-18.935419-61.977743l92.526123-274.52353c5.526168-20.73743 19.610458-38.900559 40.456581-44.398123 20.846123-5.503285 42.275754 3.272223 57.595709 18.534972l179.88076 202.740559c15.319955 15.262749 20.897609 35.731307 15.371441 56.49734-5.526168 20.731709-20.497162 35.679821-41.343285 41.177386l-79.974972 21.057787c62.458279 141.14038 203.329788 239.736134 367.593118 239.736135 222.242324 0 402.414838-180.178235 402.414838-402.414838 0-222.242324-180.172514-402.414838-402.414838-402.414838-53.087821 0-103.601341 10.543196-150.018861 29.18686 0 0-19.770637 24.467307-64.59781 24.467307-29.621631 0-53.659888-24.038257-53.659888-53.654167 0-50.570726 48.025028-56.714726 48.025028-56.714727C480.68505 20.113877 555.185341 1.607508 634.19352 1.607508c281.502749 0 509.723173 228.220425 509.723173 509.723174 0 281.497028-228.220425 509.723173-509.723173 509.723173" fill="#d81e06" p-id="1103"></path><path d="M634.19352 377.192402c74.07124 0 134.138279 60.038436 134.138279 134.13828 0 74.094123-60.067039 134.138279-134.138279 134.138279-74.06552 0-134.138279-60.044156-134.13828-134.138279 0-74.099844 60.067039-134.138279 134.13828-134.13828" fill="#d81e06" p-id="1104"></path></svg>