<?xml version="1.0" standalone="no"?><!DOCTYPE svg PUBLIC "-//W3C//DTD SVG 1.1//EN" "http://www.w3.org/Graphics/SVG/1.1/DTD/svg11.dtd"><svg t="1524900167356" class="icon" style="" viewBox="0 0 1024 1024" version="1.1" xmlns="http://www.w3.org/2000/svg" p-id="843" xmlns:xlink="http://www.w3.org/1999/xlink" width="128" height="128"><defs><style type="text/css"></style></defs><path d="M511.930003 701.369863a280.547945 280.547945 0 0 1-280.547945-280.547945V280.547945a280.547945 280.547945 0 1 1 561.09589 0v140.273973a280.547945 280.547945 0 0 1-280.547945 280.547945z m0-645.260274a224.438356 224.438356 0 0 0-224.438356 224.438356v140.273973a224.438356 224.438356 0 0 0 448.876712 0V280.547945a224.438356 224.438356 0 0 0-224.438356-224.438356z" fill="" p-id="844"></path><path d="M511.930003 883.726027A464.306849 464.306849 0 0 1 171.485072 734.474521a28.054795 28.054795 0 1 1 41.240548-38.154521 406.794521 406.794521 0 0 0 598.549041 0 28.054795 28.054795 0 0 1 41.240548 38.154521A464.447123 464.447123 0 0 1 511.930003 883.726027z" fill="" p-id="845"></path><path d="M511.930003 995.945205a28.054795 28.054795 0 0 1-28.054794-28.054794v-112.219178a28.054795 28.054795 0 0 1 56.109589 0v112.219178a28.054795 28.054795 0 0 1-28.054795 28.054794z" fill="" p-id="846"></path><path d="M652.203976 1024h-280.547945a28.054795 28.054795 0 1 1 0-56.109589h280.547945a28.054795 28.054795 0 0 1 0 56.109589z" fill="" p-id="847"></path></svg>