<?xml version="1.0" standalone="no"?><!DOCTYPE svg PUBLIC "-//W3C//DTD SVG 1.1//EN" "http://www.w3.org/Graphics/SVG/1.1/DTD/svg11.dtd"><svg t="1524900736132" class="icon" style="" viewBox="0 0 1024 1024" version="1.1" xmlns="http://www.w3.org/2000/svg" p-id="5525" xmlns:xlink="http://www.w3.org/1999/xlink" width="128" height="128"><defs><style type="text/css"></style></defs><path d="M952.844705 110.785112l-63.015385 56.408933A511.237717 511.237717 0 1 0 967.073985 746.529032a64.031762 64.031762 0 0 0 8.639206-30.999503 65.048139 65.048139 0 0 0-65.048139-65.556328 64.53995 64.53995 0 0 0-56.408933 35.065012l-2.540943 4.065509A384.698759 384.698759 0 1 1 794.289866 254.094293l-59.458065 50.818858a41.163275 41.163275 0 0 0 25.40943 71.654591l206.832754 13.212903a41.163275 41.163275 0 0 0 43.704218-38.622332l11.688338-207.340943a41.163275 41.163275 0 0 0-69.621836-33.032258z" fill="" p-id="5526"></path></svg>